<?xml version="1.0" encoding="UTF-8"?> <!-- Generator: Adobe Illustrator 15.1.0, SVG Export Plug-In . SVG Version: 6.00 Build 0) --> <svg xmlns="http://www.w3.org/2000/svg" xmlns:xlink="http://www.w3.org/1999/xlink" x="0px" y="0px" width="32px" height="32px" viewBox="0 0 32 32" style="enable-background:new 0 0 32 32;" xml:space="preserve"> <g id="Layer_1"> </g> <g id="article"> <g> <polygon style="fill:#4E4E50;" points="32,4 0,4 0,0 32,0 32,4 "></polygon> <polygon style="fill:#4E4E50;" points="20,12 0,12 0,8 20,8 20,12 "></polygon> <polygon style="fill:#4E4E50;" points="32,24 0,24 0,20 32,20 32,24 "></polygon> <polygon style="fill:#4E4E50;" points="24,32 0,32 0,28 24,28 24,32 "></polygon> <path style="fill:#4E4E50;" d="M32,30c0,1.105-0.898,2-2,2c-1.109,0-2.004-0.895-2.004-2s0.895-2,2.004-2 C31.102,28,32,28.895,32,30z"></path> </g> </g> </svg> 